<svg width="24.000000" height="24.000000" viewBox="0 0 24 24" fill="none" xmlns="http://www.w3.org/2000/svg" xmlns:xlink="http://www.w3.org/1999/xlink">
	<desc>
			Created with Pixso.
	</desc>
	<defs>
		<clipPath id="clip2_17">
			<rect id="interface-user-single--close-geometric-human-person-single-up-user" rx="0.000000" width="23.000000" height="23.000000" transform="translate(0.500000 0.500000)" fill="white" fill-opacity="0"/>
		</clipPath>
	</defs>
	<rect id="interface-user-single--close-geometric-human-person-single-up-user" rx="0.000000" width="23.000000" height="23.000000" transform="translate(0.500000 0.500000)" fill="#FFFFFF" fill-opacity="0"/>
	<g clip-path="url(#clip2_17)">
		<path id="Vector" d="M11.82 12.28C9.26 12.28 7.18 10.2 7.18 7.64C7.18 5.07 9.26 3 11.82 3C14.39 3 16.47 5.07 16.47 7.64C16.47 10.2 14.39 12.28 11.82 12.28Z" stroke="#FFFFFF" stroke-opacity="1.000000" stroke-width="2.000000" stroke-linejoin="round"/>
		<path id="Vector" d="M17.29 16.91C15.7 15.75 13.79 15.13 11.82 15.13C9.86 15.13 7.95 15.75 6.36 16.91C4.77 18.06 3.59 19.7 3 21.57L20.65 21.57C20.05 19.7 18.87 18.06 17.29 16.91Z" stroke="#FFFFFF" stroke-opacity="1.000000" stroke-width="2.000000" stroke-linejoin="round"/>
	</g>
</svg>
