<svg width="24.000000" height="24.000000" viewBox="0 0 24 24" fill="none" xmlns="http://www.w3.org/2000/svg" xmlns:xlink="http://www.w3.org/1999/xlink">
	<desc>
			Created with Pixso.
	</desc>
	<defs>
		<clipPath id="clip7_587">
			<rect id="shopping-cart-1--shopping-cart-checkout" rx="0.000000" width="23.000000" height="23.000000" transform="translate(0.500000 0.500000)" fill="white" fill-opacity="0"/>
		</clipPath>
	</defs>
	<rect id="shopping-cart-1--shopping-cart-checkout" rx="0.000000" width="23.000000" height="23.000000" transform="translate(0.500000 0.500000)" fill="#FFFFFF" fill-opacity="0"/>
	<g clip-path="url(#clip7_587)">
		<path id="Vector" d="M21.64 3L18.07 3L16.82 15.35C16.77 15.69 16.6 16 16.34 16.23C16.07 16.45 15.74 16.57 15.4 16.57L6.4 16.57C6.08 16.58 5.78 16.5 5.52 16.32C5.26 16.15 5.07 15.89 4.97 15.6L3.07 9.88C3 9.67 2.98 9.44 3.01 9.21C3.05 8.99 3.13 8.78 3.27 8.6C3.41 8.4 3.59 8.24 3.8 8.14C4.02 8.03 4.26 7.98 4.5 8L17.57 8" stroke="#313131" stroke-opacity="1.000000" stroke-width="2.000000" stroke-linejoin="round" stroke-linecap="round"/>
		<path id="Vector" d="M6.64 21.57C6.24 21.57 5.92 21.25 5.92 20.85C5.92 20.46 6.24 20.14 6.64 20.14C7.03 20.14 7.35 20.46 7.35 20.85C7.35 21.25 7.03 21.57 6.64 21.57Z" stroke="#313131" stroke-opacity="1.000000" stroke-width="2.000000" stroke-linejoin="round"/>
		<path id="Vector" d="M15.92 21.57C15.53 21.57 15.21 21.25 15.21 20.85C15.21 20.46 15.53 20.14 15.92 20.14C16.32 20.14 16.64 20.46 16.64 20.85C16.64 21.25 16.32 21.57 15.92 21.57Z" stroke="#313131" stroke-opacity="1.000000" stroke-width="2.000000" stroke-linejoin="round"/>
	</g>
</svg>
