<svg width="20.571472" height="20.571411" viewBox="0 0 20.5715 20.5714" fill="none" xmlns="http://www.w3.org/2000/svg" xmlns:xlink="http://www.w3.org/1999/xlink">
	<desc>
			Created with Pixso.
	</desc>
	<defs/>
	<path id="Vector" d="M6.71 1C7.5 1 8.14 1.63 8.14 2.42L8.14 6.71C8.14 7.5 7.5 8.14 6.71 8.14L2.42 8.14C1.63 8.14 1 7.5 1 6.71L1 2.42C1 1.63 1.63 1 2.42 1L6.71 1Z" stroke="#FFFFFF" stroke-opacity="1.000000" stroke-width="2.000000" stroke-linejoin="round"/>
	<path id="Vector" d="M18.14 1C18.93 1 19.57 1.63 19.57 2.42L19.57 6.71C19.57 7.5 18.93 8.14 18.14 8.14L13.85 8.14C13.06 8.14 12.42 7.5 12.42 6.71L12.42 2.42C12.42 1.63 13.06 1 13.85 1L18.14 1Z" stroke="#FFFFFF" stroke-opacity="1.000000" stroke-width="2.000000" stroke-linejoin="round"/>
	<path id="Vector" d="M6.71 12.42C7.5 12.42 8.14 13.06 8.14 13.85L8.14 18.14C8.14 18.93 7.5 19.57 6.71 19.57L2.42 19.57C1.63 19.57 1 18.93 1 18.14L1 13.85C1 13.06 1.63 12.42 2.42 12.42L6.71 12.42Z" stroke="#FFFFFF" stroke-opacity="1.000000" stroke-width="2.000000" stroke-linejoin="round"/>
	<path id="Vector" d="M18.14 12.42C18.93 12.42 19.57 13.06 19.57 13.85L19.57 18.14C19.57 18.93 18.93 19.57 18.14 19.57L13.85 19.57C13.06 19.57 12.42 18.93 12.42 18.14L12.42 13.85C12.42 13.06 13.06 12.42 13.85 12.42L18.14 12.42Z" stroke="#FFFFFF" stroke-opacity="1.000000" stroke-width="2.000000" stroke-linejoin="round"/>
</svg>
